Patient4_TMGait_0pt3_01_left_16_EMG.mot
version=1
nRows=33
nColumns=33
inDegrees=no
endheader
time	1LAddLong	2LGlutMax	3LGlutMed	4LIliopsoas	5LSemiMemb	6LBicFemLong	7LRecFem	8LVastMed	9LVastLat	10LGasMed	11LTibAnt	12lTibPost	13LPeroneusLong	14LSol	15LExtDigLong	16LFlexDigLong	17RAddLong	18RGlutMax	19RGlutMed	20RIliopsoas	21RSemiMemb	22RBicFemLong	23RRecFem	24RVastMed	25RVastLat	26RGasMed	27RTibAnt	28RTibPost	29RPeroneusLong	30RSol	31RExtDigLong	32RFlexDigLong
31.683	0.001526	-0.021515	-0.020905	-0.002289	-0.007477	0.023499	-0.028534	0.009766	-0.081024	-0.023956	-0.006866	0.002899	0.010529	-0.007629	0.023041	-0.003357	0.019379	-0.039978	-0.21927	0.064545	-0.19669	0.090485	-0.42099	0.23666	-0.020294	-0.10773	0.017242	-0.060272	-0.34271	-0.12497	0.002747	-0.009155
31.684	-0.001068	-0.036621	-0.028534	0.011292	-0.005798	0.015564	-0.018463	0.010986	-0.082092	-0.021057	-0.010071	0.001831	0.016632	-0.00824	-0.027771	0.003967	0.015717	-0.26779	-0.94177	0.15289	-0.10346	-0.054779	-0.35889	0.27496	-0.42129	0.036163	0.055084	-0.06012	-0.42862	0.11368	0.002747	-0.01236
31.685	0.005035	-0.014496	-0.049591	0.015106	-0.009613	0.027008	-0.013885	0.005035	-0.073853	-0.016785	-0.001984	-0.001984	0.024109	-0.030365	-0.061035	0.006714	0.013733	-0.34317	-0.83649	0.085297	-0.18036	-0.035858	-0.14465	0.22537	-0.91309	0.091553	0.087433	-0.14328	-0.29816	0.15823	0.003204	-0.010376
31.686	0.005798	-0.03891	-0.051117	0.014191	-0.003357	-0.00351	-0.029907	-0.000763	-0.062866	-0.019073	-0.043488	-0.001678	0.010376	-0.045776	-0.063934	0.004578	0.022736	-0.31799	-0.22781	0.007935	0.072784	-0.025024	-0.12955	0.097198	-0.70358	0.054932	0.11704	-0.38605	0.045166	-0.30914	0.002594	-0.019379
31.687	0.001526	-0.036926	-0.057831	0.014648	-0.009918	-0.002441	-0.023346	0.004578	-0.079041	-0.022125	-0.040588	0.001831	-0.007324	-0.033875	-0.026245	0.003357	0.000153	-0.18601	0.26291	0.046387	0.36072	-0.099182	-0.16281	0.23239	-0.36835	0.098724	0.093689	-0.2034	0.1712	-0.19852	0.005493	-0.009308
31.688	0.00473	-0.024567	-0.065155	0.001984	-0.008392	-0.001373	-0.017395	0.001221	-0.072021	-0.022736	-0.027008	0.00061	0.020294	-0.030823	-0.003357	-0.004883	-0.004883	-0.035553	0.15213	-0.001984	0.24246	-0.19974	-0.095825	0.31281	-0.49561	0.041962	-0.075836	0.053253	1.5546	-0.37186	0.002899	-0.010681
31.689	-0.00061	-0.027771	-0.036316	-0.016174	-0.006256	0.00412	-0.017548	0.009003	-0.052643	-0.026245	0.03418	0.001526	0.028381	-0.026855	-0.001526	0.005188	0.02594	0.066528	-0.013123	-0.016937	0.083923	-0.25528	0.020752	0.27451	-0.12116	-0.036011	-0.009003	0.27527	-0.23148	-0.79178	0.00824	-0.010834
31.69	-0.075684	-0.03006	-0.019226	0.007324	-0.004578	0.006714	-0.029602	-0.006256	-0.057678	-0.025024	0.068207	0.009003	0.001373	-0.019073	0.015106	0.011139	0.045776	0.21072	-0.35584	-0.028076	0.13412	-0.18509	0.093384	0.033875	-0.032196	-0.024719	-0.021057	-0.21164	-1.0609	-0.32486	0.000305	-0.0177
31.691	-0.017395	-0.056152	0.039978	0.019379	-0.012512	-0.006409	-0.051422	0.000763	-0.055542	-0.014343	0.035553	0.00412	0.000305	-0.019226	0.017853	0.000305	0.046387	0.35049	0.14954	-0.089111	0.13458	-0.16098	0.14084	-0.1265	-0.028381	0.020142	-0.049591	0.35797	-0.69961	-0.57327	0.001068	-0.009613
31.692	0.031281	-0.050201	0.036163	0.020294	-0.009155	-0.009766	-0.035095	-0.003662	-0.041351	-0.010681	0.032196	0.004578	-0.004272	-0.045013	0.030212	0.008392	0.065002	0.41229	0.44418	-0.12741	-0.12848	-0.14847	0.12955	-0.023346	-0.16769	0.00885	-0.057373	0.075836	0.004578	0.003662	0.000305	-0.003967
31.693	0.010223	-0.060883	0.023804	0.012817	-0.013275	-0.00473	-0.035095	-0.009918	-0.043945	-0.010986	0.05661	0.00061	-0.003815	-0.031891	0.02594	-0.005646	0.062103	0.439	0.59265	-0.10407	0.066681	-0.16068	0.14374	-0.045319	-0.40237	-0.045929	-0.039673	-0.093384	0.41122	0.71869	0.001373	-0.009918
31.694	-0.011902	-0.028687	0.000458	0.015411	-0.011749	0.006256	-0.033722	0.008698	-0.044403	-0.011292	0.052032	0.002441	-0.016937	-0.017242	0.019226	0.009918	0.011139	0.41321	0.80841	-0.053558	0.25665	-0.23117	0.18692	-0.032806	-0.51865	-0.043335	-0.035858	0.036316	0.19165	0.9108	0.000305	-0.003662
31.695	0.032043	-0.005951	-0.01358	0.003967	-0.001526	0.009003	-0.02121	0.003357	-0.044708	-0.001831	0.001678	0.002136	0.025177	0.001068	0.01358	0.006409	0.020752	0.4538	0.82184	0.035706	0.13992	0.0914	0.18188	-0.006866	-0.35111	0.032043	0.003815	0.15701	-0.34027	0.81634	0.001221	-0.007477
31.696	-0.034943	-0.009308	0.006866	-0.012207	-0.001831	0.009613	-0.038452	0.010834	-0.03952	-0.029449	-0.027771	-0.000153	0.050507	-0.002136	-0.021362	0.004883	-0.027924	0.38101	-0.21729	0.18005	-0.12039	0.62744	-0.000458	0.088196	-0.13123	0.010529	0.032196	0.10895	-0.29266	0.53467	0.001678	-0.008392
31.697	0.006866	-0.007019	-0.006561	-0.011749	-0.003204	0.019684	-0.039063	-0.005798	-0.053101	-0.035095	-0.025177	-0.000458	0.07309	-0.016785	-0.011139	0.006714	-0.074158	0.16007	-0.95337	0.1387	-0.41412	0.87906	0.054169	0.22598	0.002747	-0.019836	0.051727	0.00412	-0.17838	0.62195	0.000153	-0.004425
31.698	-0.00824	-0.038452	-0.076141	-0.004578	-0.004578	0.027771	-0.036469	0.002747	-0.063477	-0.021515	-0.002136	0.003052	0.020447	-0.011444	0.042114	0.004883	-0.037689	0.12405	-0.4567	0.091248	-0.24887	0.70282	0.24933	0.1445	0.006104	-0.057526	0.054474	-0.4245	0.12665	0.30365	0.000305	-0.006104
31.699	0.005951	-0.033417	-0.056458	0.004272	-0.001068	0.053253	-0.031586	-0.00412	-0.04776	-0.010834	0.011749	0.00351	-0.001373	-0.022888	0.062103	0.005188	-0.027771	-0.053406	-0.046387	0.037537	-0.042114	0.41565	0.22751	0.20432	0.03418	-0.032806	0.047455	-0.32227	0.084686	-0.60852	-0.000305	-0.003662
31.7	-0.00061	-0.020447	-0.055237	0.019989	-0.002594	0.042419	-0.03006	0.010681	-0.032806	-0.007782	0.011444	-0.003662	0.017242	-0.018921	0.019989	0.007019	-0.046082	-0.28488	0.57007	-0.031738	-0.16907	0.19836	0.22324	0.15289	0.062714	0.003204	0.06134	-0.081635	-0.33341	-0.96802	0.001984	-0.000305
31.701	0.010986	-0.006409	-0.032349	0.009003	-0.007019	0.047302	-0.051727	0.005646	-0.025024	-0.016174	0.016785	0.00473	0.0177	-0.040131	-0.040436	-0.004578	-0.05127	-0.3569	0.33081	0.017242	0.02243	-0.25116	0.22018	-0.042419	-0.005798	0.02655	0.033569	0.10895	-0.45639	-0.9642	-0.001526	-0.02655
31.702	-0.001373	-0.019836	-0.021515	-0.012817	-0.014496	0.056458	-0.056152	-0.005646	-0.021667	-0.010071	0.008392	-0.002136	0.006866	-0.038147	-0.064392	0.005341	-0.045624	-0.29266	0.13626	-0.011292	0.13138	-0.69672	0.08667	-0.25681	-0.10452	0.047302	0.011292	0.26764	-0.28824	-0.81345	0.007629	-0.01297
31.703	0.00061	-0.03952	0.0354	-0.02121	-0.010071	0.034943	-0.04364	0.001526	-0.029755	-0.020752	0.010071	0.004272	0.024719	-0.047302	-0.023651	0.002747	-0.043335	-0.16388	0.002747	-0.017853	0.24979	-0.67139	-0.11536	-0.17868	-0.10895	0.023956	0.033112	0.27039	-0.28549	-0.64941	-0.000305	-0.009003
31.704	0.002441	-0.024719	0.069733	-0.015259	-0.005493	0.043488	-0.042725	0.003662	-0.019226	-0.011597	0.025787	-0.002899	0.028839	-0.021515	-0.013275	0.007629	0.021973	-0.075226	-0.13992	-0.059509	0.17868	-0.37979	-0.1944	0.17456	-0.018463	-0.025024	0.053864	0.14114	-0.33432	-0.3891	-0.00061	-0.005341
31.705	0.000305	-0.018616	-0.003204	-0.002441	-0.007019	0.014038	-0.038452	0.003204	-0.014496	-0.014343	0.12009	0.004272	-0.006866	-0.004883	0.007935	0.009918	0.023804	-0.040894	-0.27512	-0.063934	-0.072021	-0.19638	-0.18341	0.49255	0.11429	-0.040894	0.045776	0.057983	-0.31815	-0.16876	0.000458	-0.00412
31.706	0.004578	-0.046844	-0.042572	0.024719	-0.007324	0.021057	-0.047607	0.001373	-0.010223	-0.016785	0.1564	0.000763	-0.001678	-0.012817	-0.000916	0.004578	-0.005188	-0.057678	-0.29221	-0.087128	-0.096741	-0.037384	-0.08194	0.40161	0.10223	-0.10574	0.028381	-0.042725	-0.27893	0.0354	0.001373	-0.004578
31.707	0.002136	-0.038605	-0.034943	0.026703	-0.005188	0.034485	-0.040436	-0.002289	-0.014648	-0.03952	0.070038	0.00061	0.04715	-0.014801	-0.014954	0.009766	-0.012665	-0.15884	-0.072174	-0.046692	0.044403	0.026245	0.063782	0.030975	0.10315	-0.1355	-0.078278	-0.41794	0.29419	-0.25467	0.000458	-0.008698
31.708	0.006256	-0.028229	-0.042114	0.023346	-0.00946	0.037384	-0.044403	0.01297	-0.009155	-0.030975	-0.069427	0.001221	0.044708	-0.032654	0.017853	0.001526	-0.033875	-0.17273	-0.18585	-0.039673	0.019989	0.070953	0.22614	-0.13687	0.086823	-0.092468	-0.062866	-0.2948	0.33707	-0.42526	0.001526	-0.012512
31.709	-0.000305	-0.018158	0.013733	0.012665	0.000305	0.019226	-0.022278	0.009918	-0.010986	-0.018311	-0.14008	0.006256	0.030212	-0.0354	0.024414	0.003815	-0.014954	-0.095367	-0.07843	-0.041962	-0.055847	0.14862	0.23377	-0.48645	-0.019379	0.026245	-0.083771	0.10651	0.42862	-0.006104	0.001831	-0.014191
31.71	0.001526	-0.03418	0.054169	-0.003662	-0.007019	0.014343	-0.0354	0.003815	-0.005493	-0.016785	-0.13962	0.001678	0.040131	-0.046844	0.000916	-0.001678	0.013428	-0.042114	0.2713	-0.072021	0.000458	0.027924	0.13473	-0.63019	0.055084	-0.003357	-0.054626	0.20172	0.32715	0.83954	-0.001068	-0.003357
31.711	0.000763	-0.024719	0.029297	0.027771	-0.00351	0.009155	-0.029297	0.004425	-0.000305	-0.01709	-0.093079	-0.010986	0.038452	-0.020447	-0.027466	0.00885	0.015259	-0.04776	0.3154	-0.088348	0.075378	-0.13977	0.046997	-0.23285	0.11795	0.066833	-0.021973	-0.14267	0.1207	1.0838	0.004425	-0.014038
31.712	0.002136	-0.026093	-0.052948	0.013428	-0.004578	-0.01297	-0.051575	0.006561	0.005188	-0.016479	-0.04715	-0.000916	0.023346	-0.026703	-0.04364	-0.006714	0.030365	0.019379	0.41794	-0.055237	0.001221	-0.16678	0.18127	-0.12741	0.029449	0.062866	0.01236	0.026093	-0.17288	1.3886	0.000763	-0.00473
31.713	0.001373	-0.032196	-0.036621	0.007782	-0.005646	-0.027008	-0.050049	0.003967	0.021973	-0.039978	-0.018158	-0.002899	0.054016	-0.01709	-0.051575	0.006409	0.06546	0.034027	0.5806	0.008698	-0.32089	-0.16953	0.24445	-0.17288	0.034332	0.005341	0.014038	-0.14694	0.067902	0.84457	0.002594	-0.008392
31.714	0.007629	-0.050507	-0.037689	0.016785	-0.001678	-0.028076	-0.069733	0.01236	0.024567	-0.033112	0.032196	0.00351	0.025177	-0.01297	0.045929	0.012817	0.077515	0.058441	0.1886	0.058899	-0.63568	0.019989	0.14755	-0.26276	0.12009	-0.013885	0.04837	0.006866	-0.009308	0.15945	-0.001068	-0.017395
31.715	0.002136	-0.06485	-0.003967	0.011902	-0.005341	-0.020447	-0.06546	0.003052	0.030823	-0.019989	-0.03479	-0.004272	-0.00061	-0.027161	0.028534	0.001068	0.068817	0.13397	-0.038605	0.13428	-0.54718	0.26611	0.077972	-0.25955	0.085297	-0.022888	0.1004	0.14008	-0.015564	-0.43961	0.005646	-0.016327
